<mxfile host="app.diagrams.net" modified="2021-07-22T02:53:38.165Z" agent="5.0 (Macintosh; Intel Mac OS X 10_15_7) AppleWebKit/537.36 (KHTML, like Gecko) Chrome/91.0.4472.164 Safari/537.36" etag="FbEUnkWYq-cKNr6Sph7Q" version="14.8.6" type="github">
  <diagram id="T9rrbfbzwQXW_6HNB79I" name="Page-1">
    <mxGraphModel dx="1426" dy="769" grid="1" gridSize="10" guides="1" tooltips="1" connect="1" arrows="1" fold="1" page="1" pageScale="1" pageWidth="827" pageHeight="1169" math="0" shadow="0">
      <root>
        <mxCell id="0" />
        <mxCell id="1" parent="0" />
        <mxCell id="7HLi5kw5pJeeP38anPDB-5" value="" style="edgeStyle=orthogonalEdgeStyle;rounded=0;orthogonalLoop=1;jettySize=auto;html=1;" edge="1" parent="1" source="7HLi5kw5pJeeP38anPDB-1" target="7HLi5kw5pJeeP38anPDB-3">
          <mxGeometry relative="1" as="geometry" />
        </mxCell>
        <mxCell id="7HLi5kw5pJeeP38anPDB-1" value="BAPP" style="rounded=0;whiteSpace=wrap;html=1;" vertex="1" parent="1">
          <mxGeometry x="190" y="190" width="120" height="60" as="geometry" />
        </mxCell>
        <mxCell id="7HLi5kw5pJeeP38anPDB-11" value="" style="edgeStyle=orthogonalEdgeStyle;rounded=0;orthogonalLoop=1;jettySize=auto;html=1;" edge="1" parent="1" source="7HLi5kw5pJeeP38anPDB-2" target="7HLi5kw5pJeeP38anPDB-10">
          <mxGeometry relative="1" as="geometry" />
        </mxCell>
        <mxCell id="7HLi5kw5pJeeP38anPDB-2" value="AMS" style="rounded=0;whiteSpace=wrap;html=1;" vertex="1" parent="1">
          <mxGeometry x="480" y="190" width="120" height="60" as="geometry" />
        </mxCell>
        <mxCell id="7HLi5kw5pJeeP38anPDB-6" style="edgeStyle=orthogonalEdgeStyle;rounded=0;orthogonalLoop=1;jettySize=auto;html=1;exitX=0.5;exitY=1;exitDx=0;exitDy=0;entryX=0;entryY=0.5;entryDx=0;entryDy=0;" edge="1" parent="1" source="7HLi5kw5pJeeP38anPDB-3" target="7HLi5kw5pJeeP38anPDB-4">
          <mxGeometry relative="1" as="geometry" />
        </mxCell>
        <mxCell id="7HLi5kw5pJeeP38anPDB-3" value="pascal-api" style="rounded=0;whiteSpace=wrap;html=1;" vertex="1" parent="1">
          <mxGeometry x="190" y="330" width="120" height="60" as="geometry" />
        </mxCell>
        <mxCell id="7HLi5kw5pJeeP38anPDB-9" value="" style="edgeStyle=orthogonalEdgeStyle;rounded=0;orthogonalLoop=1;jettySize=auto;html=1;" edge="1" parent="1" source="7HLi5kw5pJeeP38anPDB-4" target="7HLi5kw5pJeeP38anPDB-8">
          <mxGeometry relative="1" as="geometry" />
        </mxCell>
        <mxCell id="7HLi5kw5pJeeP38anPDB-4" value="hwaking-api" style="rounded=0;whiteSpace=wrap;html=1;" vertex="1" parent="1">
          <mxGeometry x="330" y="470" width="120" height="60" as="geometry" />
        </mxCell>
        <mxCell id="7HLi5kw5pJeeP38anPDB-8" value="phbase" style="shape=dataStorage;whiteSpace=wrap;html=1;fixedSize=1;" vertex="1" parent="1">
          <mxGeometry x="330" y="610" width="120" height="50" as="geometry" />
        </mxCell>
        <mxCell id="7HLi5kw5pJeeP38anPDB-13" value="" style="edgeStyle=orthogonalEdgeStyle;rounded=0;orthogonalLoop=1;jettySize=auto;html=1;entryX=1;entryY=0.5;entryDx=0;entryDy=0;exitX=0.5;exitY=1;exitDx=0;exitDy=0;" edge="1" parent="1" source="7HLi5kw5pJeeP38anPDB-10" target="7HLi5kw5pJeeP38anPDB-4">
          <mxGeometry relative="1" as="geometry">
            <mxPoint x="540" y="470" as="targetPoint" />
          </mxGeometry>
        </mxCell>
        <mxCell id="7HLi5kw5pJeeP38anPDB-10" value="mikasa" style="rounded=0;whiteSpace=wrap;html=1;" vertex="1" parent="1">
          <mxGeometry x="480" y="330" width="120" height="60" as="geometry" />
        </mxCell>
      </root>
    </mxGraphModel>
  </diagram>
</mxfile>
